<svg width="472" height="470" viewBox="0 0 472 470" fill="none" xmlns="http://www.w3.org/2000/svg">
<g clip-path="url(#clip0)">
<g clip-path="url(#clip1)">
<path d="M338.63 22.7499L338.169 78.9599C338.091 88.498 330.349 96.1764 320.81 96.1764H23.2458C13.7072 96.1764 6.09102 88.498 6.16927 78.9599L6.63037 22.7499C6.70862 13.2113 14.4507 5.53271 23.9894 5.53271H321.554C331.092 5.53271 338.708 13.2113 338.63 22.7499Z" fill="#3F83F4"/>
<path d="M96.2858 143.574L94.8361 320.303C94.7578 329.842 87.0161 337.52 77.4777 337.52H21.2658C11.7272 337.52 4.11104 329.842 4.18929 320.303L5.63904 143.574C5.71729 134.035 13.4594 126.357 22.998 126.357H79.2099C88.7483 126.357 96.3641 134.035 96.2858 143.574Z" fill="#1165EF"/>
<path d="M337.641 143.574L336.191 320.304C336.113 329.842 328.37 337.521 318.832 337.521H142.097C132.558 337.521 124.942 329.842 125.02 320.304L126.47 143.574C126.548 134.036 134.29 126.357 143.829 126.357H320.564C330.103 126.357 337.719 134.036 337.641 143.574Z" fill="#6FA4F6"/>
</g>
</g>
<path d="M327.282 416.71C377.776 416.71 418.71 375.776 418.71 325.282C418.71 274.787 377.776 233.853 327.282 233.853C276.787 233.853 235.853 274.787 235.853 325.282C235.853 375.776 276.787 416.71 327.282 416.71Z" fill="white"/>
<path d="M326.759 417.755C378.119 417.755 419.755 376.354 419.755 325.282C419.755 274.21 378.119 232.809 326.759 232.809V417.755Z" fill="white"/>
<path d="M403.147 454.758C402.879 455.812 402.294 456.76 401.472 457.473C400.65 458.186 399.629 458.63 398.547 458.746C397.465 458.863 396.373 458.645 395.418 458.122C394.463 457.6 393.691 456.798 393.205 455.824L335.691 340.848C335.189 339.847 335.015 338.713 335.194 337.607C335.373 336.501 335.896 335.48 336.688 334.688C337.48 333.896 338.501 333.373 339.607 333.195C340.713 333.016 341.847 333.189 342.848 333.691L457.856 391.195C458.834 391.679 459.639 392.451 460.164 393.408C460.69 394.364 460.909 395.458 460.792 396.543C460.676 397.628 460.23 398.651 459.514 399.474C458.799 400.297 457.847 400.881 456.789 401.147L413.899 411.814L403.147 454.758Z" fill="white"/>
<path d="M336.693 334.694C337.484 333.902 338.504 333.379 339.609 333.199C340.713 333.019 341.847 333.191 342.848 333.691L457.856 391.195C458.834 391.679 459.639 392.451 460.164 393.408C460.689 394.364 460.909 395.458 460.792 396.543C460.676 397.628 460.23 398.651 459.514 399.474C458.798 400.297 457.847 400.881 456.789 401.147L413.899 411.814L336.693 334.694Z" fill="#CFE1FC"/>
<path d="M403.147 454.758C402.879 455.812 402.294 456.76 401.472 457.473C400.65 458.186 399.629 458.63 398.547 458.746C397.465 458.863 396.373 458.645 395.418 458.122C394.463 457.6 393.691 456.798 393.205 455.824L335.691 340.848C335.189 339.847 335.015 338.713 335.194 337.607C335.373 336.501 335.896 335.48 336.688 334.688C337.48 333.896 338.501 333.373 339.607 333.195C340.713 333.016 341.847 333.189 342.848 333.691L457.856 391.195C458.834 391.679 459.639 392.451 460.164 393.408C460.69 394.364 460.909 395.458 460.792 396.543C460.676 397.628 460.23 398.651 459.514 399.474C458.799 400.297 457.847 400.881 456.789 401.147L413.899 411.814L403.147 454.758Z" stroke="#0A3C8F" stroke-width="16.6667" stroke-linecap="round" stroke-linejoin="round"/>
<path d="M328.533 427.867C308.491 427.867 288.9 421.924 272.236 410.789C255.571 399.655 242.583 383.828 234.914 365.312C227.244 346.796 225.237 326.421 229.147 306.764C233.057 287.108 242.708 269.052 256.88 254.88C271.052 240.708 289.107 231.057 308.764 227.147C328.421 223.237 348.796 225.244 367.312 232.914C385.828 240.583 401.654 253.572 412.789 270.236C423.924 286.9 429.867 306.492 429.867 326.534" stroke="#0A3C8F" stroke-width="16.6667" stroke-linecap="round" stroke-linejoin="round"/>
<path d="M313.28 383.195C303.359 380.52 294.315 375.287 287.052 368.019C279.789 360.751 274.562 351.702 271.895 341.78C269.227 331.857 269.213 321.407 271.853 311.477C274.493 301.547 279.695 292.484 286.938 285.196C294.181 277.908 303.211 272.65 313.125 269.948C323.038 267.246 333.487 267.196 343.427 269.801C353.366 272.407 362.447 277.577 369.76 284.795C377.073 292.012 382.362 301.024 385.099 310.928" stroke="#0A3C8F" stroke-width="16.6667" stroke-linecap="round" stroke-linejoin="round"/>
<defs>
<clipPath id="clip0">
<rect width="332" height="332" fill="white"/>
</clipPath>
<clipPath id="clip1">
<rect width="332" height="332" fill="white" transform="matrix(1 0 -0.00820295 0.999966 6.77161 5.53271)"/>
</clipPath>
</defs>
</svg>
