<svg width="471" height="470" viewBox="0 0 471 470" fill="none" xmlns="http://www.w3.org/2000/svg">
<g clip-path="url(#clip0)">
<path d="M327.697 22.1952L327.251 76.551C327.176 85.7745 319.689 93.1997 310.465 93.1997H22.7159C13.4919 93.1997 6.12702 85.7745 6.20268 76.551L6.64858 22.1952C6.72424 12.9712 14.211 5.5459 23.435 5.5459H311.184C320.408 5.5459 327.773 12.9712 327.697 22.1952Z" fill="#3F83F4"/>
<path d="M93.3465 139.034L91.9446 309.934C91.8689 319.158 84.3825 326.583 75.1588 326.583H20.8011C11.5771 326.583 4.21225 319.158 4.28791 309.934L5.68984 139.034C5.76551 129.81 13.2522 122.385 22.4762 122.385H76.8339C86.0576 122.385 93.4222 129.81 93.3465 139.034Z" fill="#1165EF"/>
<path d="M326.74 139.034L325.338 309.934C325.263 319.158 317.776 326.583 308.552 326.583H137.646C128.422 326.583 121.057 319.158 121.133 309.934L122.535 139.034C122.61 129.81 130.097 122.385 139.321 122.385H310.227C319.451 122.385 326.816 129.81 326.74 139.034Z" fill="#6FA4F6"/>
</g>
<path d="M445.206 355.708C443.137 353.831 441.482 351.537 440.349 348.975C439.217 346.412 438.632 343.639 438.632 340.834C438.632 338.029 439.217 335.255 440.349 332.693C441.482 330.13 443.137 327.836 445.206 325.959L455.781 316.344C458.829 313.571 460.95 309.917 461.853 305.882C462.756 301.847 462.397 297.63 460.825 293.809C459.254 289.987 456.546 286.75 453.075 284.54C449.603 282.33 445.538 281.256 441.436 281.466L427.205 282.206C424.425 282.345 421.647 281.896 419.05 280.888C416.453 279.879 414.095 278.335 412.127 276.353C410.159 274.371 408.625 271.995 407.624 269.38C406.623 266.765 406.177 263.967 406.315 261.168L407.049 246.835C407.269 242.7 406.211 238.598 404.02 235.094C401.83 231.589 398.616 228.854 394.819 227.265C391.022 225.676 386.83 225.31 382.818 226.219C378.807 227.127 375.173 229.265 372.418 232.339L362.87 242.989C361.004 245.069 358.725 246.731 356.181 247.869C353.637 249.006 350.884 249.594 348.101 249.594C345.317 249.594 342.564 249.006 340.02 247.869C337.476 246.731 335.197 245.069 333.331 242.989L323.783 232.339C321.03 229.269 317.402 227.133 313.395 226.224C309.389 225.314 305.201 225.676 301.407 227.259C297.613 228.842 294.398 231.568 292.204 235.065C290.009 238.561 288.943 242.655 289.152 246.786L289.87 261.118C290.013 263.918 289.571 266.716 288.573 269.333C287.574 271.949 286.042 274.326 284.075 276.308C282.107 278.291 279.749 279.836 277.152 280.844C274.554 281.851 271.776 282.298 268.996 282.157L254.765 281.417C250.65 281.187 246.565 282.25 243.076 284.459C239.586 286.668 236.864 289.914 235.285 293.749C233.707 297.583 233.35 301.817 234.264 305.864C235.178 309.912 237.317 313.574 240.387 316.344L250.962 325.959C253.027 327.839 254.678 330.134 255.807 332.696C256.937 335.258 257.521 338.03 257.521 340.834C257.521 343.637 256.937 346.409 255.807 348.971C254.678 351.533 253.027 353.829 250.962 355.708L240.387 365.324C237.339 368.096 235.219 371.751 234.315 375.785C233.412 379.82 233.771 384.038 235.343 387.859C236.915 391.68 239.622 394.918 243.094 397.128C246.565 399.337 250.631 400.411 254.732 400.201L268.964 399.462C271.743 399.32 274.522 399.767 277.119 400.775C279.716 401.782 282.075 403.327 284.042 405.31C286.009 407.293 287.542 409.669 288.54 412.286C289.538 414.902 289.98 417.701 289.837 420.5L289.119 434.832C288.911 438.963 289.977 443.057 292.171 446.554C294.365 450.05 297.58 452.777 301.374 454.359C305.169 455.942 309.356 456.304 313.363 455.394C317.369 454.485 320.998 452.349 323.751 449.28L333.298 438.629C335.165 436.549 337.444 434.887 339.988 433.75C342.532 432.612 345.284 432.024 348.068 432.024C350.851 432.024 353.604 432.612 356.148 433.75C358.692 434.887 360.971 436.549 362.838 438.629L372.385 449.28C375.138 452.349 378.767 454.485 382.773 455.394C386.779 456.304 390.967 455.942 394.761 454.359C398.556 452.777 401.771 450.05 403.965 446.554C406.159 443.057 407.225 438.963 407.017 434.832L406.282 420.5C406.144 417.7 406.59 414.903 407.591 412.287C408.592 409.672 410.126 407.297 412.094 405.315C414.062 403.333 416.421 401.788 419.018 400.78C421.615 399.772 424.392 399.323 427.172 399.462L441.403 400.201C445.505 400.411 449.571 399.337 453.042 397.128C456.514 394.918 459.221 391.68 460.793 387.859C462.365 384.038 462.723 379.82 461.82 375.785C460.917 371.751 458.796 368.096 455.749 365.324L445.206 355.708ZM348.101 381.908C340.031 381.908 332.143 379.498 325.433 374.983C318.723 370.468 313.494 364.05 310.406 356.542C307.318 349.034 306.51 340.772 308.084 332.801C309.658 324.83 313.544 317.509 319.25 311.762C324.956 306.015 332.226 302.102 340.141 300.516C348.055 298.931 356.259 299.745 363.714 302.855C371.17 305.965 377.542 311.231 382.025 317.989C386.508 324.746 388.901 332.69 388.901 340.817C388.901 351.715 384.603 362.167 376.951 369.873C369.299 377.579 358.922 381.908 348.101 381.908Z" fill="#CFE1FC"/>
<path d="M294.717 417.909L294.047 431.844C293.855 435.86 294.903 439.845 297.046 443.251C299.189 446.657 302.323 449.317 306.017 450.866C309.711 452.416 313.785 452.778 317.679 451.904C321.573 451.03 325.096 448.962 327.766 445.984L337.02 435.645C338.831 433.631 341.042 432.022 343.511 430.921C345.98 429.82 348.652 429.252 351.357 429.252L351.227 380.581C346.016 380.567 340.853 379.519 336.032 377.498C331.212 375.476 326.829 372.52 323.134 368.799C319.439 365.078 316.504 360.664 314.497 355.809C312.49 350.955 311.449 345.755 311.435 340.506C311.421 335.258 312.434 330.063 314.415 325.22C316.397 320.376 319.308 315.978 322.984 312.277C326.659 308.575 331.026 305.643 335.835 303.648C340.645 301.652 345.803 300.632 351.014 300.646L350.884 251.908C348.179 251.893 345.503 251.31 343.029 250.196C340.554 249.082 338.335 247.461 336.513 245.437L327.203 235.047C324.523 232.045 320.988 229.947 317.087 229.043C313.185 228.14 309.108 228.474 305.416 230.001C301.724 231.527 298.598 234.171 296.469 237.568C294.34 240.966 293.311 244.949 293.526 248.972L294.27 262.91C294.414 265.634 293.989 268.354 293.023 270.896C292.057 273.437 290.572 275.744 288.662 277.667C286.753 279.589 284.463 281.085 281.939 282.058C279.416 283.031 276.715 283.459 274.01 283.314L260.17 282.564C256.181 282.35 252.23 283.383 248.859 285.523C245.489 287.663 242.864 290.805 241.346 294.517C239.827 298.23 239.489 302.33 240.378 306.257C241.267 310.183 243.339 313.743 246.31 316.447L256.616 325.834C258.63 327.665 260.243 329.9 261.35 332.394C262.457 334.888 263.033 337.585 263.041 340.311C263.05 343.037 262.49 345.731 261.398 348.22C260.307 350.708 258.707 352.936 256.704 354.758L246.437 364.078C243.457 366.762 241.384 370.316 240.503 374.25C239.622 378.183 239.978 382.302 241.52 386.036C243.063 389.77 245.717 392.936 249.115 395.096C252.513 397.256 256.488 398.303 260.49 398.093L274.326 397.418C277.029 397.288 279.733 397.731 282.262 398.717C284.791 399.703 287.089 401.212 289.008 403.145C290.928 405.078 292.425 407.392 293.405 409.939C294.384 412.486 294.824 415.209 294.695 417.931L294.717 417.909Z" fill="white"/>
<path d="M444.97 355.414C442.901 353.537 441.246 351.243 440.113 348.68C438.981 346.118 438.396 343.344 438.396 340.539C438.396 337.734 438.981 334.961 440.113 332.398C441.246 329.836 442.901 327.542 444.97 325.665L455.545 316.049C458.593 313.277 460.714 309.622 461.617 305.588C462.52 301.553 462.161 297.335 460.589 293.514C459.018 289.693 456.31 286.455 452.839 284.245C449.367 282.036 445.302 280.962 441.2 281.172L426.969 281.911C424.189 282.05 421.411 281.601 418.814 280.593C416.217 279.585 413.859 278.04 411.891 276.058C409.923 274.076 408.389 271.701 407.388 269.086C406.387 266.47 405.941 263.673 406.079 260.873L406.813 246.541C407.033 242.406 405.974 238.304 403.784 234.799C401.594 231.295 398.38 228.56 394.583 226.971C390.786 225.381 386.594 225.016 382.582 225.924C378.571 226.833 374.937 228.971 372.182 232.044L362.634 242.695C360.768 244.774 358.489 246.437 355.945 247.574C353.401 248.712 350.648 249.3 347.864 249.3C345.081 249.3 342.328 248.712 339.784 247.574C337.24 246.437 334.961 244.774 333.095 242.695L323.547 232.044C320.794 228.975 317.166 226.839 313.159 225.929C309.153 225.02 304.965 225.381 301.171 226.964C297.377 228.547 294.162 231.274 291.968 234.77C289.773 238.266 288.707 242.361 288.916 246.492L289.634 260.824C289.777 263.623 289.335 266.422 288.336 269.038C287.338 271.655 285.806 274.031 283.839 276.014C281.871 277.997 279.513 279.542 276.916 280.549C274.318 281.557 271.54 282.004 268.76 281.862L254.529 281.123C250.414 280.893 246.329 281.956 242.839 284.165C239.35 286.374 236.628 289.62 235.049 293.454C233.471 297.289 233.114 301.522 234.028 305.57C234.942 309.618 237.081 313.279 240.151 316.049L250.726 325.665C252.791 327.545 254.442 329.84 255.571 332.402C256.701 334.964 257.285 337.736 257.285 340.539C257.285 343.343 256.701 346.115 255.571 348.677C254.442 351.239 252.791 353.534 250.726 355.414L240.151 365.029C237.103 367.802 234.982 371.456 234.079 375.491C233.176 379.526 233.535 383.743 235.107 387.565C236.679 391.386 239.386 394.623 242.858 396.833C246.329 399.043 250.395 400.117 254.496 399.907L268.728 399.167C271.507 399.025 274.286 399.473 276.883 400.48C279.48 401.488 281.839 403.033 283.806 405.015C285.773 406.998 287.306 409.375 288.304 411.991C289.302 414.608 289.744 417.406 289.601 420.205L288.883 434.538C288.675 438.669 289.741 442.763 291.935 446.259C294.129 449.755 297.344 452.482 301.138 454.065C304.933 455.648 309.12 456.009 313.127 455.1C317.133 454.19 320.762 452.054 323.515 448.985L333.062 438.335C334.929 436.255 337.208 434.593 339.752 433.455C342.296 432.317 345.048 431.73 347.832 431.73C350.615 431.73 353.368 432.317 355.912 433.455C358.456 434.593 360.735 436.255 362.602 438.335L372.149 448.985C374.902 452.054 378.531 454.19 382.537 455.1C386.543 456.009 390.731 455.648 394.525 454.065C398.32 452.482 401.534 449.755 403.729 446.259C405.923 442.763 406.989 438.669 406.781 434.538L406.046 420.205C405.908 417.406 406.354 414.608 407.355 411.993C408.356 409.378 409.89 407.002 411.858 405.02C413.826 403.038 416.185 401.494 418.782 400.485C421.378 399.477 424.156 399.028 426.936 399.167L441.167 399.907C445.269 400.117 449.334 399.043 452.806 396.833C456.278 394.623 458.985 391.386 460.557 387.565C462.129 383.743 462.487 379.526 461.584 375.491C460.681 371.456 458.56 367.802 455.513 365.029L444.97 355.414ZM347.864 381.613C339.795 381.613 331.906 379.203 325.197 374.688C318.487 370.173 313.258 363.756 310.17 356.248C307.082 348.739 306.274 340.477 307.848 332.507C309.422 324.536 313.308 317.214 319.014 311.468C324.72 305.721 331.99 301.807 339.905 300.222C347.819 298.637 356.023 299.45 363.478 302.56C370.934 305.67 377.306 310.937 381.789 317.694C386.272 324.452 388.665 332.396 388.665 340.523C388.665 351.421 384.366 361.872 376.715 369.578C369.063 377.284 358.685 381.613 347.864 381.613Z" stroke="#0A3C8F" stroke-width="16.6667" stroke-linecap="round" stroke-linejoin="round"/>
<defs>
<clipPath id="clip0">
<rect width="321.049" height="321.049" fill="white" transform="matrix(1 0 -0.00820295 0.999966 6.78516 5.5459)"/>
</clipPath>
</defs>
</svg>
