<?xml version="1.0" encoding="UTF-8"?>
<svg width="500px" height="500px" viewBox="0 0 500 500" version="1.1" xmlns="http://www.w3.org/2000/svg" xmlns:xlink="http://www.w3.org/1999/xlink">
    <title>stripejs</title>
    <g id="stripejs" stroke="none" stroke-width="1" fill="none" fill-rule="evenodd">
        <circle id="Oval" fill="#005566" cx="250" cy="250" r="250"></circle>
        <path d="M85.6,286.232 C93.4346667,286.232 99.796,284.256 104.684,280.304 C109.572,276.352 112.016,271.013333 112.016,264.288 C112.016,262.208 111.756,260.284 111.236,258.516 C110.716,256.748 110.092,255.24 109.364,253.992 C108.636,252.744 107.578667,251.530667 106.192,250.352 C104.805333,249.173333 103.574667,248.237333 102.5,247.544 C101.425333,246.850667 99.9,246.105333 97.924,245.308 C95.948,244.510667 94.388,243.921333 93.244,243.54 C92.1,243.158667 90.4186667,242.621333 88.2,241.928 C82.792,240.264 79.1346667,238.721333 77.228,237.3 C75.3213333,235.878667 74.368,234.024 74.368,231.736 C74.368,229.586667 75.2173333,227.836 76.916,226.484 C78.6146667,225.132 80.9546667,224.456 83.936,224.456 C90.3146667,224.456 94.96,227.576 97.872,233.816 L97.872,233.816 L109.936,226.848 C107.44,221.717333 103.956,217.713333 99.484,214.836 C95.012,211.958667 89.8293333,210.52 83.936,210.52 C77.3493333,210.52 71.716,212.478667 67.036,216.396 C62.356,220.313333 60.016,225.565333 60.016,232.152 C60.016,235.48 60.6053333,238.392 61.784,240.888 C62.9626667,243.384 64.6786667,245.446667 66.932,247.076 C69.1853333,248.705333 71.4386667,250.005333 73.692,250.976 C75.9453333,251.946667 78.7013333,252.917333 81.96,253.888 C87.8533333,255.552 91.944,257.094667 94.232,258.516 C96.52,259.937333 97.664,261.930667 97.664,264.496 C97.664,266.714667 96.728,268.552 94.856,270.008 C92.984,271.464 90.0373333,272.192 86.016,272.192 C77.696,272.192 72.1146667,268.482667 69.272,261.064 L69.272,261.064 L57,268.24 C59.0106667,273.786667 62.4773333,278.172 67.4,281.396 C72.3226667,284.62 78.3893333,286.232 85.6,286.232 Z M130.996,282.176 C134.774667,284.949333 141.274667,285.816 150.496,284.776 L150.496,284.776 L150.496,272.608 C147.930667,272.746667 145.781333,272.764 144.048,272.66 C142.314667,272.556 140.997333,272.088 140.096,271.256 C139.194667,270.424 138.744,269.106667 138.744,267.304 L138.744,267.304 L138.744,245.672 L150.496,245.672 L150.496,232.776 L138.744,232.776 L138.744,218.216 L125.328,222.272 L125.328,232.776 L116.28,232.776 L116.28,245.672 L125.328,245.672 L125.328,267.304 C125.328,274.445333 127.217333,279.402667 130.996,282.176 Z M174.208,284.776 L174.208,259.92 C174.208,254.928 175.82,251.357333 179.044,249.208 C182.268,247.058667 185.925333,246.226667 190.016,246.712 L190.016,246.712 L190.016,231.736 C186.48,231.736 183.273333,232.568 180.396,234.232 C177.518667,235.896 175.456,238.392 174.208,241.72 L174.208,241.72 L174.208,232.776 L160.792,232.776 L160.792,284.776 L174.208,284.776 Z M204.472,226.536 C206.76,226.536 208.718667,225.721333 210.348,224.092 C211.977333,222.462667 212.792,220.538667 212.792,218.32 C212.792,216.101333 211.977333,214.16 210.348,212.496 C208.718667,210.832 206.76,210 204.472,210 C202.253333,210 200.329333,210.832 198.7,212.496 C197.070667,214.16 196.256,216.101333 196.256,218.32 C196.256,220.538667 197.070667,222.462667 198.7,224.092 C200.329333,225.721333 202.253333,226.536 204.472,226.536 Z M211.232,284.776 L211.232,232.776 L197.816,232.776 L197.816,284.776 L211.232,284.776 Z M236.92,305.576 L236.92,278.64 C240.872,283.701333 246.488,286.232 253.768,286.232 C260.770667,286.232 266.750667,283.58 271.708,278.276 C276.665333,272.972 279.144,266.472 279.144,258.776 C279.144,251.08 276.665333,244.58 271.708,239.276 C266.750667,233.972 260.770667,231.32 253.768,231.32 C246.488,231.32 240.872,233.850667 236.92,238.912 L236.92,238.912 L236.92,232.776 L223.504,232.776 L223.504,305.576 L236.92,305.576 Z M251.272,273.44 C247.112,273.44 243.68,272.088 240.976,269.384 C238.272,266.610667 236.92,263.074667 236.92,258.776 C236.92,254.477333 238.272,250.958667 240.976,248.22 C243.68,245.481333 247.112,244.112 251.272,244.112 C255.432,244.112 258.881333,245.481333 261.62,248.22 C264.358667,250.958667 265.728,254.477333 265.728,258.776 C265.728,263.074667 264.358667,266.593333 261.62,269.332 C258.881333,272.070667 255.432,273.44 251.272,273.44 Z M314.4,286.232 C324.384,286.232 331.941333,282.522667 337.072,275.104 L337.072,275.104 L326.256,268.864 C323.621333,272.330667 319.738667,274.064 314.608,274.064 C306.634667,274.064 301.746667,270.805333 299.944,264.288 L299.944,264.288 L339.152,264.288 C339.498667,262.346667 339.672,260.509333 339.672,258.776 C339.672,251.010667 337.193333,244.493333 332.236,239.224 C327.278667,233.954667 320.986667,231.32 313.36,231.32 C305.317333,231.32 298.730667,233.937333 293.6,239.172 C288.469333,244.406667 285.904,250.941333 285.904,258.776 C285.904,266.68 288.504,273.232 293.704,278.432 C298.904,283.632 305.802667,286.232 314.4,286.232 Z M326.256,253.888 L299.736,253.888 C300.498667,250.56 302.058667,247.977333 304.416,246.14 C306.773333,244.302667 309.754667,243.384 313.36,243.384 C316.410667,243.384 319.132,244.250667 321.524,245.984 C323.916,247.717333 325.493333,250.352 326.256,253.888 L326.256,253.888 Z M356.832,286.128 C359.258667,286.128 361.338667,285.261333 363.072,283.528 C364.805333,281.794667 365.672,279.714667 365.672,277.288 C365.672,274.861333 364.805333,272.781333 363.072,271.048 C361.338667,269.314667 359.258667,268.448 356.832,268.448 C354.405333,268.448 352.325333,269.314667 350.592,271.048 C348.858667,272.781333 347.992,274.861333 347.992,277.288 C347.992,279.714667 348.858667,281.794667 350.592,283.528 C352.325333,285.261333 354.405333,286.128 356.832,286.128 Z M385.432,226.536 C387.650667,226.536 389.574667,225.721333 391.204,224.092 C392.833333,222.462667 393.648,220.538667 393.648,218.32 C393.648,216.101333 392.833333,214.16 391.204,212.496 C389.574667,210.832 387.650667,210 385.432,210 C383.144,210 381.185333,210.832 379.556,212.496 C377.926667,214.16 377.112,216.101333 377.112,218.32 C377.112,220.538667 377.926667,222.462667 379.556,224.092 C381.185333,225.721333 383.144,226.536 385.432,226.536 Z M369.416,307.032 C377.112,307.517333 382.814667,306.009333 386.524,302.508 C390.233333,299.006667 392.088,293.442667 392.088,285.816 L392.088,285.816 L392.088,232.776 L378.672,232.776 L378.672,285.816 C378.672,288.936 377.926667,291.154667 376.436,292.472 C374.945333,293.789333 372.605333,294.344 369.416,294.136 L369.416,294.136 L369.416,307.032 Z M422.664,286.232 C428.626667,286.232 433.601333,284.793333 437.588,281.916 C441.574667,279.038667 443.568,274.930667 443.568,269.592 C443.568,266.056 442.649333,263.109333 440.812,260.752 C438.974667,258.394667 436.738667,256.713333 434.104,255.708 C431.469333,254.702667 428.834667,253.870667 426.2,253.212 C423.565333,252.553333 421.329333,251.790667 419.492,250.924 C417.654667,250.057333 416.736,248.930667 416.736,247.544 C416.736,246.226667 417.308,245.186667 418.452,244.424 C419.596,243.661333 421.034667,243.28 422.768,243.28 C426.650667,243.28 429.424,245.048 431.088,248.584 L431.088,248.584 L442.528,242.344 C440.517333,238.808 437.778667,236.086667 434.312,234.18 C430.845333,232.273333 426.997333,231.32 422.768,231.32 C417.152,231.32 412.454667,232.793333 408.676,235.74 C404.897333,238.686667 403.008,242.725333 403.008,247.856 C403.008,251.253333 403.926667,254.078667 405.764,256.332 C407.601333,258.585333 409.837333,260.232 412.472,261.272 C415.106667,262.312 417.741333,263.178667 420.376,263.872 C423.010667,264.565333 425.246667,265.345333 427.084,266.212 C428.921333,267.078667 429.84,268.205333 429.84,269.592 C429.84,272.573333 427.448,274.064 422.664,274.064 C417.394667,274.064 413.997333,271.810667 412.472,267.304 L412.472,267.304 L400.824,273.856 C404.706667,282.106667 411.986667,286.232 422.664,286.232 Z" id="Stripe.js" fill="#FFFFFF" fill-rule="nonzero"></path>
        <path d="M319.16,360.254 L319.16,344.24 L204.864,344.24 L273.002,274.218 C285.980667,261.03 296.081,248.522333 303.303,236.695 C310.525,224.867667 314.136,212.674 314.136,200.114 C314.136,180.646 307.699,165.26 294.825,153.956 C281.951,142.652 266.617333,137 248.824,137 C234.170667,137 221.035,140.506333 209.417,147.519 C197.799,154.531667 188.745333,164.632 182.256,177.82 L182.256,177.82 L196.386,186.298 C206.852667,164.108667 224.332,153.014 248.824,153.014 C262.64,153.014 274.153333,157.200667 283.364,165.574 C292.574667,173.947333 297.18,185.460667 297.18,200.114 C297.18,217.07 285.352667,237.794 261.698,262.286 L261.698,262.286 L181,345.182 L181,360.254 L319.16,360.254 Z" id="2" fill="#FFFFFF" fill-rule="nonzero" opacity="0.124255952"></path>
    </g>
</svg>