<?xml version="1.0" standalone="no"?>
<!DOCTYPE svg PUBLIC "-//W3C//DTD SVG 20010904//EN"
 "http://www.w3.org/TR/2001/REC-SVG-20010904/DTD/svg10.dtd">
<svg version="1.0" xmlns="http://www.w3.org/2000/svg"
 width="192.000000pt" height="192.000000pt" viewBox="0 0 192.000000 192.000000"
 preserveAspectRatio="xMidYMid meet">

<g transform="translate(0.000000,192.000000) scale(0.100000,-0.100000)"
fill="#000000" stroke="none">
<path d="M0 960 l0 -960 960 0 960 0 0 960 0 960 -960 0 -960 0 0 -960z m1608
786 c79 -37 126 -88 148 -162 43 -150 -41 -305 -212 -389 -40 -19 -80 -35 -89
-35 -19 0 -154 91 -155 105 0 6 30 22 68 38 73 30 153 86 186 130 13 17 21 43
21 69 0 33 -6 45 -30 64 -16 13 -49 26 -73 30 -24 4 -273 5 -553 2 -494 -4
-510 -5 -536 -24 -51 -38 -52 -48 -52 -642 -1 -617 -2 -610 63 -637 48 -20
1056 -22 1095 -2 14 6 34 28 45 47 18 30 21 55 24 185 4 141 2 152 -18 177
-12 15 -95 77 -185 138 l-165 110 -52 -47 c-166 -146 -228 -207 -237 -235 -6
-17 -11 -91 -11 -165 l0 -134 -92 3 -93 3 0 165 c0 228 -9 212 261 445 117
102 217 185 221 185 4 0 64 -39 133 -86 382 -261 388 -266 413 -349 16 -53 15
-405 -1 -461 -18 -62 -64 -118 -119 -145 l-48 -24 -620 0 c-593 0 -622 1 -659
19 -57 28 -101 77 -120 132 -14 42 -16 121 -16 665 0 604 0 620 21 674 12 31
34 72 50 90 33 37 103 75 159 86 19 4 289 6 600 6 l565 -2 63 -29z"/>
</g>
</svg>
